HIERARCHY
ROOT joint_Root
{
	OFFSET 0.0 0.0 0.0
	CHANNELS 6 Xposition Yposition Zposition Zrotation Xrotation Yrotation 
	JOINT Hips
	{
		OFFSET -17.1583 93.1646 452.98
		CHANNELS 6 Xposition Yposition Zposition Zrotation Xrotation Yrotation 
		JOINT Spine
		{
			OFFSET 15.7357 0.0 0.0
			CHANNELS 6 Xposition Yposition Zposition Zrotation Xrotation Yrotation 
			JOINT Chest
			{
				OFFSET 8.98455 -0.406207 0.0
				CHANNELS 6 Xposition Yposition Zposition Zrotation Xrotation Yrotation 
				JOINT Neck
				{
					OFFSET 16.3773 0.0 0.0
					CHANNELS 6 Xposition Yposition Zposition Zrotation Xrotation Yrotation 
					JOINT Head
					{
						OFFSET 6.45672 0.0 0.0
						CHANNELS 6 Xposition Yposition Zposition Zrotation Xrotation Yrotation 
						End Site
						{
							OFFSET 0.0 0.0 0.0
						}
					}
				}
				JOINT Shoulder_L
				{
					OFFSET 12.9942 -0.242716 4.98039
					CHANNELS 6 Xposition Yposition Zposition Zrotation Xrotation Yrotation 
					JOINT UpperArm_L
					{
						OFFSET 5.34809 0.0 0.0
						CHANNELS 6 Xposition Yposition Zposition Zrotation Xrotation Yrotation 
						JOINT LowerArm_L
						{
							OFFSET 24.3286 1.87007e-05 0.0
							CHANNELS 6 Xposition Yposition Zposition Zrotation Xrotation Yrotation 
							JOINT Hand_L
							{
								OFFSET 22.2916 0.0 0.0
								CHANNELS 6 Xposition Yposition Zposition Zrotation Xrotation Yrotation 
								End Site
								{
									OFFSET 0.0 0.0 0.0
								}
							}
						}
					}
				}
				JOINT Shoulder_R
				{
					OFFSET 12.9945 -0.242716 -4.98039
					CHANNELS 6 Xposition Yposition Zposition Zrotation Xrotation Yrotation 
					JOINT UpperArm_R
					{
						OFFSET -5.34813 0.0 0.0
						CHANNELS 6 Xposition Yposition Zposition Zrotation Xrotation Yrotation 
						JOINT LowerArm_R
						{
							OFFSET -24.3289 0.000322201 0.0
							CHANNELS 6 Xposition Yposition Zposition Zrotation Xrotation Yrotation 
							JOINT Hand_R
							{
								OFFSET -22.2915 -0.000108084 0.0
								CHANNELS 6 Xposition Yposition Zposition Zrotation Xrotation Yrotation 
								End Site
								{
									OFFSET 0.0 0.0 0.0
								}
							}
						}
					}
				}
			}
		}
		JOINT UpperLeg_L
		{
			OFFSET -2.19248 -6.46944 0.0
			CHANNELS 6 Xposition Yposition Zposition Zrotation Xrotation Yrotation 
			JOINT LowerLeg_L
			{
				OFFSET 39.0811 0.0 -1.23785e-05
				CHANNELS 6 Xposition Yposition Zposition Zrotation Xrotation Yrotation 
				JOINT Foot_L
				{
					OFFSET 40.9854 0.0 -1.26872e-05
					CHANNELS 6 Xposition Yposition Zposition Zrotation Xrotation Yrotation 
					JOINT Toes_L
					{
						OFFSET 11.7543 0.0 0.0
						CHANNELS 6 Xposition Yposition Zposition Zrotation Xrotation Yrotation 
						End Site
						{
							OFFSET 0.0 0.0 0.0
						}
					}
				}
			}
		}
		JOINT UpperLeg_R
		{
			OFFSET -2.19251 6.46944 0.0
			CHANNELS 6 Xposition Yposition Zposition Zrotation Xrotation Yrotation 
			JOINT LowerLeg_R
			{
				OFFSET -39.0811 -0.00228153 -0.0401928
				CHANNELS 6 Xposition Yposition Zposition Zrotation Xrotation Yrotation 
				JOINT Foot_R
				{
					OFFSET -40.9854 0.0 0.0
					CHANNELS 6 Xposition Yposition Zposition Zrotation Xrotation Yrotation 
					JOINT Toes_R
					{
						OFFSET -11.7543 0.0 0.0
						CHANNELS 6 Xposition Yposition Zposition Zrotation Xrotation Yrotation 
						End Site
						{
							OFFSET 0.0 0.0 0.0
						}
					}
				}
			}
		}
	}
}
MOTION
Frames:	9
Frame Time:	0.0333333
0.000000 0.000000 0.000000 0.000000 0.000000 -0.000000 2.467680 81.535600 390.970000 -82.346800 5.921270 162.522000 15.735700 0.000005 -0.000001 98.443000 82.072800 -94.157900 8.984550 -0.406207 -0.000000 7.848610 2.321660 8.402900 16.377300 -0.000001 -0.000001 -10.276800 4.998490 -2.407000 6.456720 -0.000001 -0.000000 -2.192690 5.770790 -9.039760 12.994200 -0.242716 4.980390 -92.727800 8.641800 -72.406400 5.348090 -0.000007 -0.000001 -67.608700 -3.734540 6.492860 24.328600 0.000019 0.000005 9.128260 39.196200 -14.266800 22.291600 -0.000001 0.000005 0.963274 5.065360 5.897330 12.994500 -0.242716 -4.980390 89.117600 3.864860 -77.129000 -5.348130 -0.000001 -0.000004 -62.785700 6.718330 -11.831300 -24.328900 0.000322 -0.000009 1.433810 2.570880 -29.100600 -22.291500 -0.000108 -0.000004 0.075683 5.245170 1.604780 -2.192480 -6.469440 -0.000000 -174.077000 -8.209480 -39.835500 39.081100 -0.000007 -0.000012 0.485360 0.141686 106.272000 40.985400 -0.000006 -0.000013 -5.524980 0.657682 -39.091000 11.754300 -0.000000 0.000003 0.002064 0.049236 -14.579600 -2.192510 6.469440 -0.000001 -171.181000 -3.423890 149.047000 -39.081100 -0.002282 -0.040193 -0.013536 0.010962 56.804200 -40.985400 0.000008 0.000006 -4.699670 0.999601 -95.220700 -11.754300 -0.000006 -0.000006 -0.002060 0.197137 -8.575210
0.000000 0.000000 0.000000 0.000000 0.000000 -0.000000 2.181230 82.999900 383.325000 -84.623200 6.802360 161.280000 15.735700 0.000005 -0.000001 103.781000 82.382900 -100.946000 8.984550 -0.406207 -0.000000 6.957180 3.596730 5.447220 16.377300 -0.000001 -0.000001 -10.598200 4.422500 -1.850180 6.456720 -0.000001 -0.000000 -3.062640 4.875220 -7.741060 12.994200 -0.242716 4.980390 -92.613400 7.975820 -71.791100 5.348090 -0.000007 -0.000001 -58.451400 -15.682100 12.762900 24.328600 0.000019 0.000005 2.087310 41.698300 -3.135720 22.291600 -0.000001 0.000005 1.276770 4.676790 13.553100 12.994500 -0.242716 -4.980390 89.338700 2.946530 -77.344300 -5.348130 -0.000001 -0.000004 -61.541000 13.266100 -13.439500 -24.328900 0.000322 -0.000009 4.811960 3.880970 -51.180200 -22.291500 -0.000108 -0.000004 9.185960 5.406730 -3.118430 -2.192480 -6.469440 -0.000000 -177.604000 -7.723610 -51.667400 39.081100 -0.000007 -0.000012 0.394386 0.131298 108.411000 40.985400 -0.000006 -0.000013 -5.453600 1.142710 -47.799000 11.754300 -0.000000 0.000003 0.002052 0.048741 -14.599700 -2.192510 6.469440 -0.000001 -174.838000 -1.740980 156.924000 -39.081100 -0.002282 -0.040193 -0.020308 0.020880 48.452100 -40.985400 0.000008 0.000006 -5.516270 4.163780 -93.047400 -11.754300 -0.000006 -0.000006 0.000894 0.150946 -10.451700
0.000000 0.000000 0.000000 0.000000 0.000000 -0.000000 1.583370 85.511600 374.906000 -87.802500 7.194860 159.285000 15.735700 0.000005 -0.000001 108.552000 83.062500 -107.397000 8.984550 -0.406207 -0.000000 5.357180 4.380420 2.103750 16.377300 -0.000001 -0.000001 -10.894500 3.755560 -1.356830 6.456720 -0.000001 -0.000000 -3.323960 3.450700 -6.557390 12.994200 -0.242716 4.980390 -92.076900 6.277400 -71.652100 5.348090 -0.000007 -0.000001 -49.109400 -21.190700 20.213800 24.328600 0.000019 0.000005 0.618947 36.852500 -1.033300 22.291600 -0.000001 0.000005 5.074250 4.255990 20.440800 12.994500 -0.242716 -4.980390 89.634700 1.706520 -77.918300 -5.348130 -0.000001 -0.000004 -61.635200 14.262500 -13.329300 -24.328900 0.000322 -0.000009 6.405890 2.300870 -70.352000 -22.291500 -0.000108 -0.000004 17.062700 5.486190 -5.917530 -2.192480 -6.469440 -0.000000 178.005000 -5.672700 -60.060500 39.081100 -0.000007 -0.000012 0.245799 0.055628 102.750000 40.985400 -0.000006 -0.000013 -5.130740 0.631454 -56.189600 11.754300 -0.000000 0.000003 0.002153 0.053068 -14.424200 -2.192510 6.469440 -0.000001 -179.602000 0.969624 165.331000 -39.081100 -0.002282 -0.040193 -0.018679 0.030166 36.062800 -40.985400 0.000008 0.000006 -7.278240 6.845330 -83.774100 -11.754300 -0.000006 -0.000006 0.001085 0.020861 -15.727000
0.000000 0.000000 0.000000 0.000000 0.000000 -0.000000 1.084870 88.402300 366.110000 -91.022400 6.750620 156.486000 15.735700 0.000005 -0.000001 115.838000 84.190200 -116.271000 8.984550 -0.406207 -0.000000 2.720890 5.078710 -0.986402 16.377300 -0.000001 -0.000001 -10.760700 2.650030 -1.105180 6.456720 -0.000001 -0.000000 -2.402980 1.675480 -4.596790 12.994200 -0.242716 4.980390 -91.133800 3.605700 -72.533800 5.348090 -0.000007 -0.000001 -43.928300 -19.939400 26.060600 24.328600 0.000019 0.000005 0.933193 26.555800 -2.085660 22.291600 -0.000001 0.000005 15.168200 4.041900 23.619100 12.994500 -0.242716 -4.980390 89.973900 0.127978 -78.470900 -5.348130 -0.000001 -0.000004 -63.970400 12.692400 -11.094000 -24.328900 0.000322 -0.000009 1.606010 0.217965 -82.372500 -22.291500 -0.000108 -0.000004 22.789200 5.663640 -16.257300 -2.192480 -6.469440 -0.000000 174.869000 -2.730210 -65.430200 39.081100 -0.000007 -0.000012 0.140446 0.003422 91.391900 40.985400 -0.000006 -0.000013 -5.629940 0.563356 -62.556400 11.754300 -0.000000 0.000003 0.002089 0.050244 -14.538800 -2.192510 6.469440 -0.000001 176.665000 5.580900 171.590000 -39.081100 -0.002282 -0.040193 0.003950 -0.001439 23.844600 -40.985400 0.000008 0.000006 -6.207890 6.937810 -66.296300 -11.754300 -0.000006 -0.000006 -0.037077 -0.248244 -26.762400
0.000000 0.000000 0.000000 0.000000 0.000000 -0.000000 1.043240 91.005800 357.339000 -92.466800 5.005110 153.848000 15.735700 0.000005 -0.000001 125.484000 85.103700 -126.737000 8.984550 -0.406207 -0.000000 0.276322 5.764570 -2.520060 16.377300 -0.000001 -0.000001 -10.770300 1.712000 -1.435260 6.456720 -0.000001 -0.000000 -1.112500 -0.373543 -2.013300 12.994200 -0.242716 4.980390 -90.510300 1.687610 -73.174800 5.348090 -0.000007 -0.000001 -41.524400 -18.581100 27.391100 24.328600 0.000019 0.000005 0.596973 21.918500 -1.598710 22.291600 -0.000001 0.000005 33.947600 3.769220 27.323700 12.994500 -0.242716 -4.980390 90.035200 -0.183676 -79.142100 -5.348130 -0.000001 -0.000004 -65.896900 10.670400 -8.083230 -24.328900 0.000322 -0.000009 -0.144852 -0.003541 -89.007000 -22.291500 -0.000108 -0.000004 31.737500 5.660980 -26.114600 -2.192480 -6.469440 -0.000000 174.806000 -0.415408 -67.242200 39.081100 -0.000007 -0.000012 0.073441 -0.018585 75.793600 40.985400 -0.000006 -0.000013 -6.006840 3.315510 -66.634500 11.754300 -0.000000 0.000003 0.002111 0.051220 -14.499200 -2.192510 6.469440 -0.000001 175.991000 12.473400 175.869000 -39.081100 -0.002282 -0.040193 0.023758 -0.081431 14.081300 -40.985400 0.000008 0.000006 -3.041040 7.734880 -44.953900 -11.754300 -0.000006 -0.000006 -0.058405 -0.326555 -30.053200
0.000000 0.000000 0.000000 0.000000 0.000000 -0.000000 1.706080 92.534400 348.066000 -90.835900 1.557500 154.571000 15.735700 0.000005 -0.000001 127.252000 84.924200 -127.959000 8.984550 -0.406207 -0.000000 0.358302 6.188920 -1.433800 16.377300 -0.000001 -0.000001 -11.288600 1.092550 -1.894730 6.456720 -0.000001 -0.000000 -0.261484 -2.306510 0.138176 12.994200 -0.242716 4.980390 -90.341000 1.137290 -73.307200 5.348090 -0.000007 -0.000001 -42.341400 -17.102500 24.544400 24.328600 0.000019 0.000005 0.354978 21.610400 -0.963352 22.291600 -0.000001 0.000005 55.795300 3.404260 32.156100 12.994500 -0.242716 -4.980390 89.861900 0.750044 -79.567100 -5.348130 -0.000001 -0.000004 -66.340600 10.108300 -5.427180 -24.328900 0.000322 -0.000009 5.771520 -0.067336 -90.672500 -22.291500 -0.000108 -0.000004 44.237300 5.660240 -26.136800 -2.192480 -6.469440 -0.000000 178.941000 1.090020 -62.915900 39.081100 -0.000007 -0.000012 0.021144 -0.013061 58.286700 40.985400 -0.000006 -0.000013 -6.375090 8.581070 -70.363100 11.754300 -0.000000 0.000003 0.002193 0.054949 -14.348000 -2.192510 6.469440 -0.000001 178.748000 13.753100 -179.549000 -39.081100 -0.002282 -0.040193 0.044253 -0.191368 12.069000 -40.985400 0.000008 0.000006 -2.723800 3.207770 -28.590400 -11.754300 -0.000006 -0.000006 0.000135 0.165365 -9.866310
0.000000 0.000000 0.000000 0.000000 0.000000 -0.000000 2.068400 92.686800 338.662000 -89.480100 -0.195528 156.434000 15.735700 0.000005 -0.000001 126.930000 84.436100 -127.182000 8.984550 -0.406207 -0.000000 1.153700 6.697700 -0.570893 16.377300 -0.000001 -0.000001 -11.419600 0.625741 -1.821430 6.456720 -0.000001 -0.000000 0.366974 -3.158440 0.980928 12.994200 -0.242716 4.980390 -90.363800 1.267310 -73.980000 5.348090 -0.000007 -0.000001 -44.941700 -16.942000 21.129500 24.328600 0.000019 0.000005 0.125840 19.398800 -0.378685 22.291600 -0.000001 0.000005 64.156100 3.474840 31.260300 12.994500 -0.242716 -4.980390 89.906300 0.547185 -80.290900 -5.348130 -0.000001 -0.000004 -69.459800 8.668260 -2.010170 -24.328900 0.000322 -0.000009 5.962090 0.515925 -85.069600 -22.291500 -0.000108 -0.000004 44.496600 5.661750 -26.047500 -2.192480 -6.469440 -0.000000 -178.776000 1.467290 -55.441200 39.081100 -0.000007 -0.000012 -0.017165 0.020117 40.476500 40.985400 -0.000006 -0.000013 -6.071700 11.618900 -73.973100 11.754300 -0.000000 0.000003 0.002298 0.060682 -14.115500 -2.192510 6.469440 -0.000001 -178.899000 8.728550 -178.738000 -39.081100 -0.002282 -0.040193 0.107894 -0.258610 22.017500 -40.985400 0.000008 0.000006 -3.139220 -2.385960 -20.495700 -11.754300 -0.000006 -0.000006 0.000843 0.152013 -10.408400
0.000000 0.000000 0.000000 0.000000 0.000000 -0.000000 2.028830 91.583000 328.981000 -89.544800 -0.872855 158.654000 15.735700 0.000005 -0.000001 122.175000 83.916700 -122.441000 8.984550 -0.406207 -0.000000 2.562290 6.485470 -0.677847 16.377300 -0.000001 -0.000001 -11.554800 0.310052 -1.468480 6.456720 -0.000001 -0.000000 0.597726 -3.062000 1.475860 12.994200 -0.242716 4.980390 -90.405800 1.480260 -74.667200 5.348090 -0.000007 -0.000001 -49.643300 -17.270100 16.232100 24.328600 0.000019 0.000005 0.006634 17.138200 -0.022202 22.291600 -0.000001 0.000005 51.627800 3.652640 28.940800 12.994500 -0.242716 -4.980390 89.992900 0.043231 -80.697000 -5.348130 -0.000001 -0.000004 -73.969000 6.026790 0.807164 -24.328900 0.000322 -0.000009 3.903760 1.128530 -73.893000 -22.291500 -0.000108 -0.000004 33.464100 5.684550 -22.335300 -2.192480 -6.469440 -0.000000 -179.127000 1.225670 -47.231700 39.081100 -0.000007 -0.000012 -0.027999 0.053543 27.606400 40.985400 -0.000006 -0.000013 -7.556960 13.827000 -76.719000 11.754300 -0.000000 0.000003 0.002295 0.060486 -14.123400 -2.192510 6.469440 -0.000001 -177.591000 3.929110 -179.731000 -39.081100 -0.002282 -0.040193 0.119156 -0.150350 37.620600 -40.985400 0.000008 0.000006 -3.211170 -0.882974 -24.182300 -11.754300 -0.000006 -0.000006 0.000244 0.163454 -9.943920
0.000000 0.000000 0.000000 0.000000 0.000000 -0.000000 1.760740 89.376300 319.427000 -90.889300 -2.717850 160.058000 15.735700 0.000005 -0.000001 112.263000 83.984800 -112.727000 8.984550 -0.406207 -0.000000 3.395460 4.570130 -1.062480 16.377300 -0.000001 -0.000001 -11.206400 0.172298 -1.370240 6.456720 -0.000001 -0.000000 0.096473 -2.511710 2.153000 12.994200 -0.242716 4.980390 -90.739600 2.679110 -74.561900 5.348090 -0.000007 -0.000001 -54.243200 -15.749000 9.232060 24.328600 0.000019 0.000005 0.000092 12.802900 -0.000001 22.291600 -0.000001 0.000005 30.588500 3.901550 25.552600 12.994500 -0.242716 -4.980390 89.884100 0.659344 -80.036000 -5.348130 -0.000001 -0.000004 -75.833000 4.840170 2.774040 -24.328900 0.000322 -0.000009 1.589050 0.937936 -59.426600 -22.291500 -0.000108 -0.000004 18.445300 5.634860 -13.387500 -2.192480 -6.469440 -0.000000 177.210000 2.281170 -47.674900 39.081100 -0.000007 -0.000012 0.581401 -0.818640 35.384300 40.985400 -0.000006 -0.000013 3.281560 10.274300 -74.918700 11.754300 -0.000000 0.000003 0.001800 0.039756 -14.964100 -2.192510 6.469440 -0.000001 -178.264000 4.841450 175.271000 -39.081100 -0.002282 -0.040193 0.222808 -0.147531 56.104600 -40.985400 0.000008 0.000006 -4.063070 -2.092140 -25.903300 -11.754300 -0.000006 -0.000006 -0.000194 0.170873 -9.642630
